<?xml version="1.0" encoding="UTF-8"?> <svg xmlns="http://www.w3.org/2000/svg" width="126" height="126" viewBox="0 0 126 126" fill="none"> <circle cx="63" cy="63" r="63" fill="white"></circle> <path d="M95.5 44H74V35.5C74 35.1022 73.842 34.7206 73.5607 34.4393C73.2794 34.158 72.8978 34 72.5 34H52.5C52.1022 34 51.7206 34.158 51.4393 34.4393C51.158 34.7206 51 35.1022 51 35.5V44H30.5C30.1022 44 29.7206 44.158 29.4393 44.4393C29.158 44.7206 29 45.1022 29 45.5V86.5C29 86.8978 29.158 87.2794 29.4393 87.5607C29.7206 87.842 30.1022 88 30.5 88H95.5C95.8978 88 96.2794 87.842 96.5607 87.5607C96.842 87.2794 97 86.8978 97 86.5V45.5C97 45.1022 96.842 44.7206 96.5607 44.4393C96.2794 44.158 95.8978 44 95.5 44ZM54 37H71V44H54V37ZM94 47V63H70.73C70.3322 63 69.9506 63.158 69.6693 63.4393C69.388 63.7206 69.23 64.1022 69.23 64.5C69.23 66.2133 68.5494 67.8564 67.3379 69.0679C66.1264 70.2794 64.4833 70.96 62.77 70.96C61.0567 70.96 59.4136 70.2794 58.2021 69.0679C56.9906 67.8564 56.31 66.2133 56.31 64.5C56.31 64.1022 56.152 63.7206 55.8707 63.4393C55.5894 63.158 55.2078 63 54.81 63H32V47H94ZM32 85V66H53.43C53.787 68.2201 54.9232 70.2404 56.6347 71.6987C58.3463 73.157 60.5214 73.958 62.77 73.958C65.0186 73.958 67.1937 73.157 68.9053 71.6987C70.6168 70.2404 71.753 68.2201 72.11 66H94V85H32Z" fill="#00848C"></path> </svg> 