<?xml version="1.0" encoding="UTF-8"?> <svg xmlns="http://www.w3.org/2000/svg" width="104" height="104" viewBox="0 0 104 104" fill="none"> <circle cx="52" cy="52" r="52" fill="white"></circle> <path d="M88.3804 52.18C88.3804 52.18 88.3804 52.09 88.4304 52.05C88.4329 52 88.4329 51.95 88.4304 51.9C88.4304 51.9 88.4304 51.81 88.4304 51.77C88.4304 51.73 88.4304 51.67 88.4304 51.62C88.4304 51.57 88.4304 51.53 88.4304 51.48C88.4304 51.43 88.4304 51.39 88.4304 51.34C88.4326 51.2934 88.4326 51.2466 88.4304 51.2C88.4304 51.2 88.4304 51.11 88.3804 51.06L88.3204 50.93L88.2304 50.79L88.1704 50.7C85.0509 46.9093 81.5416 43.457 77.7004 40.4C69.2204 33.59 60.5104 30 52.5004 30C31.2104 30 16.4104 49.88 15.7904 50.72V50.79L15.7104 50.92L15.6504 51.05V51.18C15.6478 51.23 15.6478 51.28 15.6504 51.33C15.6504 51.33 15.6504 51.42 15.6504 51.47C15.6504 51.52 15.6504 51.57 15.6504 51.62C15.6504 51.67 15.6504 51.72 15.6504 51.76C15.6504 51.8 15.6504 51.85 15.6504 51.9C15.6481 51.9466 15.6481 51.9934 15.6504 52.04V52.18L15.7104 52.31L15.7904 52.45V52.51C16.4104 53.35 31.2104 73.01 52.5004 73.01C60.5004 73.01 69.2204 69.46 77.7104 62.74C81.5509 59.7045 85.0603 56.2721 88.1804 52.5L88.2404 52.4L88.3304 52.27L88.3804 52.18ZM52.5004 70C35.2204 70 22.0004 55.39 18.9104 51.6C22.0004 47.78 35.1904 33 52.5004 33C68.0004 33 81.7004 47.72 85.0004 51.61C81.7004 55.5 68.0004 70 52.5004 70Z" fill="#00848C"></path> <path d="M52 36C48.9344 36 45.9376 36.9091 43.3887 38.6122C40.8397 40.3154 38.853 42.7362 37.6799 45.5684C36.5067 48.4007 36.1998 51.5172 36.7978 54.5239C37.3959 57.5306 38.8721 60.2924 41.0399 62.4602C43.2076 64.6279 45.9694 66.1041 48.9761 66.7022C51.9828 67.3002 55.0993 66.9933 57.9316 65.8201C60.7639 64.647 63.1846 62.6603 64.8878 60.1113C66.5909 57.5624 67.5 54.5656 67.5 51.5C67.4947 47.3908 65.86 43.4514 62.9543 40.5457C60.0487 37.64 56.1092 36.0053 52 36V36ZM52 64C49.5277 64 47.111 63.2669 45.0554 61.8934C42.9998 60.5199 41.3976 58.5676 40.4515 56.2835C39.5054 53.9995 39.2579 51.4861 39.7402 49.0614C40.2225 46.6366 41.413 44.4093 43.1612 42.6612C44.9093 40.913 47.1366 39.7225 49.5614 39.2402C51.9861 38.7579 54.4995 39.0054 56.7836 39.9515C59.0676 40.8976 61.0199 42.4998 62.3934 44.5554C63.7669 46.611 64.5 49.0277 64.5 51.5C64.4947 54.8136 63.1761 57.9899 60.833 60.333C58.4899 62.6761 55.3136 63.9947 52 64V64Z" fill="#00848C"></path> <path d="M52 44C50.5166 44 49.0666 44.4399 47.8332 45.264C46.5999 46.0881 45.6386 47.2594 45.0709 48.6299C44.5032 50.0003 44.3547 51.5083 44.6441 52.9632C44.9335 54.418 45.6478 55.7544 46.6967 56.8033C47.7456 57.8522 49.082 58.5665 50.5368 58.8559C51.9917 59.1453 53.4997 58.9968 54.8701 58.4291C56.2406 57.8614 57.4119 56.9001 58.236 55.6668C59.0601 54.4334 59.5 52.9834 59.5 51.5C59.4974 49.5117 58.7063 47.6056 57.3004 46.1996C55.8944 44.7937 53.9883 44.0026 52 44V44ZM52 56C51.11 56 50.24 55.7361 49.4999 55.2416C48.7599 54.7471 48.1831 54.0443 47.8425 53.2221C47.5019 52.3998 47.4128 51.495 47.5865 50.6221C47.7601 49.7492 48.1887 48.9474 48.818 48.318C49.4474 47.6887 50.2492 47.2601 51.1221 47.0865C51.995 46.9128 52.8998 47.0019 53.7221 47.3425C54.5443 47.6831 55.2471 48.2599 55.7416 48.9999C56.2361 49.74 56.5 50.61 56.5 51.5C56.5 52.6935 56.0259 53.8381 55.182 54.682C54.3381 55.5259 53.1935 56 52 56Z" fill="#00848C"></path> </svg> 