<?xml version="1.0" encoding="UTF-8"?> <svg xmlns="http://www.w3.org/2000/svg" width="152" height="152" viewBox="0 0 152 152" fill="none"> <circle cx="76" cy="76" r="76" fill="white"></circle> <path d="M89.0772 99.1357C88.3132 98.8167 87.4342 99.1707 87.1112 99.9337C85.3292 104.15 81.2212 106.873 76.6472 106.873C72.2862 106.873 68.2572 104.323 66.3832 100.378C66.0282 99.6307 65.1352 99.3097 64.3842 99.6667C63.6352 100.021 63.3172 100.917 63.6732 101.665C66.0412 106.651 71.1342 109.873 76.6472 109.873C82.4302 109.873 87.6222 106.43 89.8752 101.102C90.1972 100.339 89.8412 99.4587 89.0772 99.1357Z" fill="#00848C"></path> <path d="M69.2658 84.9385C69.8188 84.3215 69.7668 83.3735 69.1498 82.8205C68.5318 82.2675 67.5858 82.3195 67.0318 82.9365C65.1908 84.9915 63.3488 85.9945 61.5388 85.9025C58.7368 85.7685 56.7248 83.0825 56.7028 83.0525C56.2158 82.3845 55.2808 82.2375 54.6118 82.7225C53.9408 83.2085 53.7918 84.1475 54.2778 84.8185C54.3918 84.9755 57.1238 88.6785 61.3658 88.8975C61.4998 88.9045 61.6328 88.9085 61.7658 88.9085C64.3828 88.9085 66.9048 87.5745 69.2658 84.9385Z" fill="#00848C"></path> <path d="M96.0792 82.9367C94.2392 84.9907 92.3902 85.9987 90.5862 85.9027C87.7922 85.7697 85.7822 83.1007 85.7462 83.0527C85.2592 82.3847 84.3212 82.2387 83.6542 82.7237C82.9832 83.2097 82.8352 84.1477 83.3212 84.8187C83.4352 84.9757 86.1692 88.6797 90.4142 88.8977C90.5472 88.9057 90.6802 88.9087 90.8122 88.9087C93.4302 88.9087 95.9522 87.5747 98.3132 84.9387C98.8662 84.3217 98.8142 83.3737 98.1972 82.8207C97.5802 82.2667 96.6302 82.3197 96.0792 82.9367Z" fill="#00848C"></path> <path d="M111.653 70.0146C111.417 65.9226 110.145 55.0006 103.296 48.5776C99.525 45.0406 94.678 43.4446 88.897 43.8366C85.53 44.0646 82.459 44.3336 79.749 44.5696C62.875 46.0466 57.783 46.4906 52.578 31.9906C52.348 31.3466 51.68 30.9426 50.995 31.0066C50.799 31.0256 50.608 31.0826 50.433 31.1746C49.994 31.4066 39.647 36.9936 36.622 48.2036C34.779 55.0316 36.075 62.3856 40.47 70.0856C33.985 71.0906 29 76.6936 29 83.4536C29 90.9286 35.077 97.0096 42.547 97.0096H43.522C48.682 110.812 61.469 120.613 76.399 120.613C91.325 120.613 104.108 110.813 109.267 97.0096H110.037C117.505 97.0096 123.581 90.9286 123.581 83.4536C123.58 76.5316 118.359 70.8136 111.653 70.0146ZM39.51 49.0126C41.548 41.4216 47.604 36.5986 50.397 34.7196C56.256 49.6346 63.451 49.0046 80.01 47.5576C82.705 47.3216 85.761 47.0546 89.1 46.8286C94.011 46.4936 98.097 47.8176 101.237 50.7576C107.391 56.5216 108.476 66.9816 108.667 70.4486C95.524 73.3856 90.989 59.3436 90.799 58.7296C90.631 58.1826 90.166 57.7786 89.601 57.6886C89.031 57.5986 88.468 57.8386 88.138 58.3076C79.78 70.1956 66.134 72.6966 60.655 73.2206C53.476 73.9056 46.775 72.5886 43.868 69.9366C39.257 62.4606 37.79 55.4206 39.51 49.0126ZM32 83.4536C32 78.1386 35.957 73.7426 41.077 73.0236V83.4536C41.077 87.1196 41.592 90.6606 42.537 94.0086C36.726 94.0036 32 89.2706 32 83.4536ZM76.398 117.613C58.576 117.613 44.077 102.29 44.077 83.4546V73.7186C47.216 75.4536 51.707 76.4086 56.805 76.4086C58.146 76.4086 59.53 76.3426 60.941 76.2076C66.495 75.6766 79.862 73.2456 88.977 62.1576C91.177 66.7586 97.069 75.7656 108.71 73.4996V83.4546C108.71 102.289 94.215 117.613 76.398 117.613ZM110.253 93.9986C111.196 90.6536 111.71 87.1166 111.71 83.4536V73.0536C116.729 73.8566 120.58 78.2076 120.58 83.4536C120.58 89.2006 115.966 93.8816 110.253 93.9986Z" fill="#00848C"></path> </svg> 